<svg width="20" height="20" viewBox="0 0 20 20" fill="none" xmlns="http://www.w3.org/2000/svg">
<g opacity="0.5" clip-path="url(#clip0_267_7904)">
<path d="M15.0003 10.8333H10.8337V15C10.8337 15.4583 10.4587 15.8333 10.0003 15.8333C9.54199 15.8333 9.16699 15.4583 9.16699 15V10.8333H5.00033C4.54199 10.8333 4.16699 10.4583 4.16699 10C4.16699 9.54167 4.54199 9.16667 5.00033 9.16667H9.16699V5.00001C9.16699 4.54167 9.54199 4.16667 10.0003 4.16667C10.4587 4.16667 10.8337 4.54167 10.8337 5.00001V9.16667H15.0003C15.4587 9.16667 15.8337 9.54167 15.8337 10C15.8337 10.4583 15.4587 10.8333 15.0003 10.8333Z" fill="#9095A9"/>
</g>
<defs>
<clipPath id="clip0_267_7904">
<rect width="20" height="20" fill="white"/>
</clipPath>
</defs>
</svg>
