<svg width="20" height="20" viewBox="0 0 20 20" fill="none" xmlns="http://www.w3.org/2000/svg">
<g opacity="0.5" clip-path="url(#clip0_100_1832)">
<path d="M18.3251 6.66667C18.3251 6.06667 18.0167 5.54167 17.5417 5.25L10.8417 1.325C10.3251 1.01667 9.67508 1.01667 9.15841 1.325L2.45841 5.25C1.98341 5.54167 1.66675 6.06667 1.66675 6.66667V15C1.66675 15.9167 2.41675 16.6667 3.33341 16.6667H16.6667C17.5834 16.6667 18.3334 15.9167 18.3334 15L18.3251 6.66667ZM9.11675 10.2833L3.11675 6.53333L9.15841 2.99167C9.67508 2.68333 10.3251 2.68333 10.8417 2.99167L16.8834 6.53333L10.8834 10.2833C10.3417 10.6167 9.65841 10.6167 9.11675 10.2833Z" fill="#9095A9"/>
</g>
<defs>
<clipPath id="clip0_100_1832">
<rect width="20" height="20" fill="white"/>
</clipPath>
</defs>
</svg>
