<svg width="20" height="20" viewBox="0 0 20 20" fill="none" xmlns="http://www.w3.org/2000/svg">
<g clip-path="url(#clip0_2221_1598)">
<path d="M18.325 6.66667C18.325 6.06667 18.0167 5.54167 17.5417 5.25L10.8417 1.325C10.325 1.01667 9.67499 1.01667 9.15832 1.325L2.45832 5.25C1.98332 5.54167 1.66666 6.06667 1.66666 6.66667V15C1.66666 15.9167 2.41666 16.6667 3.33332 16.6667H16.6667C17.5833 16.6667 18.3333 15.9167 18.3333 15L18.325 6.66667ZM9.11666 10.2833L3.11666 6.53333L9.15832 2.99167C9.67499 2.68333 10.325 2.68333 10.8417 2.99167L16.8833 6.53333L10.8833 10.2833C10.3417 10.6167 9.65832 10.6167 9.11666 10.2833Z" fill="#121720"/>
</g>
<defs>
<clipPath id="clip0_2221_1598">
<rect width="20" height="20" fill="white"/>
</clipPath>
</defs>
</svg>
