<svg width="24" height="24" viewBox="0 0 24 24" fill="none" xmlns="http://www.w3.org/2000/svg">
<g opacity="0.5">
<path d="M21.2456 10.2613L13.0878 10.2609C12.7275 10.2609 12.4355 10.5528 12.4355 10.9131V13.5191C12.4355 13.8793 12.7275 14.1713 13.0877 14.1713H17.6817C17.1787 15.4768 16.2398 16.5701 15.0419 17.2648L17.0007 20.6558C20.143 18.8385 22.0007 15.6499 22.0007 12.0804C22.0007 11.5722 21.9633 11.2088 21.8883 10.7997C21.8314 10.4889 21.5615 10.2613 21.2456 10.2613Z" fill="#9095A9"/>
<path d="M11.9995 18.087C9.75135 18.087 7.7887 16.8586 6.7346 15.0409L3.34375 16.9954C5.06933 19.9861 8.3019 22 11.9995 22C13.8135 22 15.5251 21.5116 16.9995 20.6605V20.6558L15.0407 17.2648C14.1447 17.7845 13.1078 18.087 11.9995 18.087Z" fill="#9095A9"/>
<path d="M17 20.6604V20.6557L15.0411 17.2647C14.1451 17.7844 13.1083 18.0869 12 18.0869V21.9999C13.8139 21.9999 15.5256 21.5115 17 20.6604Z" fill="#9095A9"/>
<path d="M5.91304 11.9999C5.91304 10.8918 6.21546 9.85503 6.73503 8.95906L3.34418 7.00462C2.48836 8.47441 2 10.1814 2 11.9999C2 13.8185 2.48836 15.5255 3.34418 16.9953L6.73503 15.0408C6.21546 14.1449 5.91304 13.1081 5.91304 11.9999Z" fill="#9095A9"/>
<path d="M11.9995 5.91304C13.4656 5.91304 14.8122 6.43397 15.8641 7.30049C16.1236 7.51424 16.5007 7.49881 16.7384 7.26112L18.5849 5.41464C18.8546 5.14495 18.8354 4.70351 18.5473 4.45359C16.785 2.92472 14.492 2 11.9995 2C8.3019 2 5.06933 4.01394 3.34375 7.00464L6.7346 8.95908C7.7887 7.14139 9.75135 5.91304 11.9995 5.91304Z" fill="#9095A9"/>
<path d="M15.8645 7.30049C16.124 7.51424 16.5012 7.49881 16.7389 7.26112L18.5853 5.41464C18.855 5.14495 18.8358 4.70351 18.5477 4.45359C16.7854 2.92469 14.4925 2 12 2V5.91304C13.466 5.91304 14.8127 6.43397 15.8645 7.30049Z" fill="#9095A9"/>
</g>
</svg>
