<svg width="21" height="20" viewBox="0 0 21 20" fill="none" xmlns="http://www.w3.org/2000/svg">
<g clip-path="url(#clip0_2396_1002)">
<path d="M9.825 1.13325L3.99167 3.72492C3.39167 3.99158 3 4.59159 3 5.24992V9.16658C3 13.7916 6.2 18.1166 10.5 19.1666C14.8 18.1166 18 13.7916 18 9.16658V5.24992C18 4.59159 17.6083 3.99158 17.0083 3.72492L11.175 1.13325C10.75 0.941585 10.25 0.941585 9.825 1.13325V1.13325ZM8.24167 13.5749L6.08333 11.4166C5.75833 11.0916 5.75833 10.5666 6.08333 10.2416C6.40833 9.91658 6.93333 9.91658 7.25833 10.2416L8.83333 11.8083L13.7333 6.90825C14.0583 6.58325 14.5833 6.58325 14.9083 6.90825C15.2333 7.23325 15.2333 7.75825 14.9083 8.08325L9.41667 13.5749C9.1 13.8999 8.56667 13.8999 8.24167 13.5749Z" fill="#6FCF97"/>
</g>
<defs>
<clipPath id="clip0_2396_1002">
<rect width="20" height="20" fill="white" transform="translate(0.5)"/>
</clipPath>
</defs>
</svg>
