<svg width="24" height="24" viewBox="0 0 24 24" fill="none" xmlns="http://www.w3.org/2000/svg">
<g opacity="0.5" clip-path="url(#clip0_278_8318)">
<path d="M19.915 13.0279C19.527 12.5379 19.638 12.3199 19.915 11.8819C19.92 11.8769 23.123 7.45092 23.453 5.94992L23.455 5.94892C23.619 5.40192 23.455 4.99992 22.662 4.99992H20.038C19.37 4.99992 19.062 5.34492 18.897 5.73092C18.897 5.73092 17.561 8.92892 15.671 11.0019C15.061 11.6009 14.779 11.7929 14.446 11.7929C14.282 11.7929 14.027 11.6009 14.027 11.0539V5.94892C14.027 5.29292 13.84 4.99992 13.287 4.99992H9.161C8.742 4.99992 8.493 5.30592 8.493 5.59092C8.493 6.21292 9.438 6.35592 9.536 8.10592V11.9029C9.536 12.7349 9.385 12.8879 9.05 12.8879C8.158 12.8879 5.993 9.67692 4.71 6.00192C4.451 5.28892 4.198 5.00092 3.525 5.00092H0.9C0.151 5.00092 0 5.34592 0 5.73192C0 6.41392 0.892 9.80492 4.148 14.2849C6.318 17.3429 9.374 18.9999 12.154 18.9999C13.825 18.9999 14.029 18.6319 14.029 17.9989C14.029 15.0769 13.878 14.8009 14.715 14.8009C15.103 14.8009 15.771 14.9929 17.331 16.4679C19.114 18.2169 19.407 18.9999 20.405 18.9999H23.029C23.777 18.9999 24.156 18.6319 23.938 17.9059C23.439 16.3789 20.067 13.2379 19.915 13.0279V13.0279Z" fill="#9095A9"/>
</g>
<defs>
<clipPath id="clip0_278_8318">
<rect width="24" height="24" fill="white"/>
</clipPath>
</defs>
</svg>
